{
  "accessors": [
    {
      "bufferView": 2,
      "componentType": 5126,
      "count": 65532,
      "max": [
        3.6040995121002197,
        11.949352264404297,
        14.364089965820313
      ],
      "min": [
        -7.047207832336426,
        -14.584430694580078,
        -11.678718566894531
      ],
      "type": "VEC3"
    },
    {
      "bufferView": 2,
      "byteOffset": 786384,
      "componentType": 5126,
      "count": 65532,
      "max": [
        0.9999837875366211,
        0.9999322891235352,
        0.9998679757118225
      ],
      "min": [
        -0.9998705983161926,
        -0.9996923804283142,
        -0.9999986290931702
      ],
      "type": "VEC3"
    },
    {
      "bufferView": 1,
      "componentType": 5126,
      "count": 65532,
      "max": [
        0.6451399922370911,
        0.6692900061607361
      ],
      "min": [
        0.0019499999471008778,
        0.0019499999471008778
      ],
      "type": "VEC2"
    },
    {
      "bufferView": 0,
      "componentType": 5125,
      "count": 321687,
      "type": "SCALAR"
    },
    {
      "bufferView": 2,
      "byteOffset": 1572768,
      "componentType": 5126,
      "count": 63864,
      "max": [
        3.607649803161621,
        11.954041481018066,
        14.432817459106445
      ],
      "min": [
        -7.008435249328613,
        -14.503525733947754,
        -11.678718566894531
      ],
      "type": "VEC3"
    },
    {
      "bufferView": 2,
      "byteOffset": 2339136,
      "componentType": 5126,
      "count": 63864,
      "max": [
        0.9999750852584839,
        0.9999910593032837,
        0.9999731779098511
      ],
      "min": [
        -0.9994910955429077,
        -0.9997568130493164,
        -0.999979555606842
      ],
      "type": "VEC3"
    },
    {
      "bufferView": 1,
      "byteOffset": 524256,
      "componentType": 5126,
      "count": 63864,
      "max": [
        0.6471400260925293,
        0.6680200099945068
      ],
      "min": [
        0.002580000087618828,
        0.0065299998968839645
      ],
      "type": "VEC2"
    },
    {
      "bufferView": 0,
      "byteOffset": 1286748,
      "componentType": 5125,
      "count": 266205,
      "type": "SCALAR"
    },
    {
      "bufferView": 2,
      "byteOffset": 3105504,
      "componentType": 5126,
      "count": 62876,
      "max": [
        2.4320333003997803,
        11.359702110290527,
        14.392014503479004
      ],
      "min": [
        -7.540980339050293,
        -14.397608757019043,
        -11.495853424072266
      ],
      "type": "VEC3"
    },
    {
      "bufferView": 2,
      "byteOffset": 3860016,
      "componentType": 5126,
      "count": 62876,
      "max": [
        0.9944226741790771,
        0.9991500377655029,
        0.9976828694343567
      ],
      "min": [
        -0.9999698400497437,
        -0.9999801516532898,
        -0.9998671412467957
      ],
      "type": "VEC3"
    },
    {
      "bufferView": 1,
      "byteOffset": 1035168,
      "componentType": 5126,
      "count": 62876,
      "max": [
        0.9980400204658508,
        0.99440997838974
      ],
      "min": [
        0.4327700138092041,
        0.47021999955177307
      ],
      "type": "VEC2"
    },
    {
      "bufferView": 0,
      "byteOffset": 2351568,
      "componentType": 5125,
      "count": 364416,
      "type": "SCALAR"
    }
  ],
  "asset": {
    "extras": {
      "author": "Taylor (https://sketchfab.com/thoulihan)",
      "license": "CC-BY-4.0 (http://creativecommons.org/licenses/by/4.0/)",
      "source": "https://sketchfab.com/3d-models/colorful-seashell-7693ada7661c4035969961c6124d320b",
      "title": "Colorful Seashell"
    },
    "generator": "Sketchfab-12.68.0",
    "version": "2.0"
  },
  "bufferViews": [
    {
      "buffer": 0,
      "byteLength": 3809232,
      "name": "floatBufferViews",
      "target": 34963
    },
    {
      "buffer": 0,
      "byteLength": 1538176,
      "byteOffset": 3809232,
      "byteStride": 8,
      "name": "floatBufferViews",
      "target": 34962
    },
    {
      "buffer": 0,
      "byteLength": 4614528,
      "byteOffset": 5347408,
      "byteStride": 12,
      "name": "floatBufferViews",
      "target": 34962
    }
  ],
  "buffers": [
    {
      "byteLength": 9961936,
      "uri": "scene.bin"
    }
  ],
  "extensionsUsed": [
    "KHR_materials_unlit"
  ],
  "images": [
    {
      "uri": "textures/defaultMat_baseColor.jpeg"
    }
  ],
  "materials": [
    {
      "doubleSided": true,
      "extensions": {
        "KHR_materials_unlit": {}
      },
      "name": "defaultMat",
      "pbrMetallicRoughness": {
        "baseColorTexture": {
          "index": 0
        },
        "metallicFactor": 0.0
      }
    }
  ],
  "meshes": [
    {
      "name": "Object_0",
      "primitives": [
        {
          "attributes": {
            "NORMAL": 1,
            "POSITION": 0,
            "TEXCOORD_0": 2
          },
          "indices": 3,
          "material": 0,
          "mode": 4
        }
      ]
    },
    {
      "name": "Object_1",
      "primitives": [
        {
          "attributes": {
            "NORMAL": 5,
            "POSITION": 4,
            "TEXCOORD_0": 6
          },
          "indices": 7,
          "material": 0,
          "mode": 4
        }
      ]
    },
    {
      "name": "Object_2",
      "primitives": [
        {
          "attributes": {
            "NORMAL": 9,
            "POSITION": 8,
            "TEXCOORD_0": 10
          },
          "indices": 11,
          "material": 0,
          "mode": 4
        }
      ]
    }
  ],
  "nodes": [
    {
      "children": [
        1
      ],
      "matrix": [
        0.09006063640117645,
        0.27384230494499184,
        0.9575486779212953,
        0.0,
        0.02093963325023651,
        -0.9617638587951661,
        0.27307835221290566,
        0.0,
        0.9957161545753479,
        -0.004542890936136225,
        -0.09235122054815292,
        0.0,
        -3.133068561553955,
        0.6570382714271538,
        3.6844537258148193,
        1.0
      ],
      "name": "Sketchfab_model"
    },
    {
      "children": [
        2,
        3,
        4
      ],
      "name": "seashell_sd2_160k_mm.OBJ.cleaner.materialmerger.gles"
    },
    {
      "mesh": 0,
      "name": "Object_2"
    },
    {
      "mesh": 1,
      "name": "Object_3"
    },
    {
      "mesh": 2,
      "name": "Object_4"
    }
  ],
  "samplers": [
    {
      "magFilter": 9729,
      "minFilter": 9987,
      "wrapS": 10497,
      "wrapT": 10497
    }
  ],
  "scene": 0,
  "scenes": [
    {
      "name": "Sketchfab_Scene",
      "nodes": [
        0
      ]
    }
  ],
  "textures": [
    {
      "sampler": 0,
      "source": 0
    }
  ]
}
